
    <svg
        xmlns="http://www.w3.org/2000/svg"
        width="105"
        height="50"
        viewBox="0 0 50 50"
        fill="none"
    >
        <path
            d="M19.3718 4.33013C22.7752 2.36517 26.9684 2.36517 30.3718 4.33013L39.9114 9.83782C43.3148 11.8028 45.4114 15.4342 45.4114 19.3641V30.3795C45.4114 34.3094 43.3148 37.9408 39.9114 39.9058L30.3718 45.4135C26.9684 47.3784 22.7752 47.3784 19.3718 45.4135L9.8322 39.9058C6.42878 37.9408 4.33219 34.3094 4.33219 30.3795V19.3641C4.33219 15.4342 6.42878 11.8028 9.83219 9.83782L19.3718 4.33013Z"
            stroke="#4B566B"
            stroke-width="2"
        />
        <g clip-path="url(#clip0_9440_81122)">
            <path
                d="M32.0397 23.7245C31.9049 23.742 31.7668 23.7525 31.6217 23.7525C30.7235 23.7525 29.9221 23.3537 29.3729 22.7382C28.8236 23.3537 28.0222 23.7525 27.1206 23.7525C26.219 23.7525 25.4176 23.3537 24.8683 22.7382C24.319 23.3537 23.5211 23.7525 22.616 23.7525C21.7179 23.7525 20.9165 23.3537 20.3672 22.7382C19.8179 23.3537 19.0165 23.7525 18.1135 23.7525C17.9733 23.7525 17.832 23.742 17.6949 23.7245C15.7839 23.4657 14.8797 21.1852 15.9017 19.5484L17.8821 16.3771C18.0583 16.092 18.373 15.9178 18.7091 15.9178H31.0344C31.3695 15.9178 31.6839 16.092 31.86 16.3771L33.8394 19.5484C34.8654 21.1887 33.9569 23.4657 32.0397 23.7245ZM32.1848 24.8332C32.3022 24.8157 32.4715 24.7878 32.6096 24.7528V31.5871C32.6096 32.8217 31.6182 33.8255 30.3988 33.8255H19.3447C18.1239 33.8255 17.1339 32.8217 17.1339 31.5871V24.7528C17.2676 24.7878 17.4054 24.8157 17.5474 24.8332H17.5515C17.7332 24.8577 17.9225 24.8717 18.1135 24.8717C18.5433 24.8717 18.9578 24.8052 19.3447 24.6828V29.3486H30.3988V24.6863C30.7857 24.8052 31.1968 24.8717 31.6217 24.8717C31.8151 24.8717 32.0017 24.8577 32.1848 24.8332Z"
                fill="#2B3445"
            />
        </g>
        <mask
            id="mask0_9440_81122"
            style="mask-type:alpha"
            maskUnits="userSpaceOnUse"
            x="43"
            y="17"
            width="11"
            height="14"
        >
            <path
                d="M43.7743 19.0205C43.7743 18.8629 43.8006 18.7185 43.8531 18.5872C43.9122 18.4493 43.9877 18.3311 44.0796 18.2326C44.1781 18.1275 44.293 18.0488 44.4243 17.9962C44.5556 17.9371 44.6968 17.9076 44.8478 17.9076C45.0054 17.9076 45.1466 17.9371 45.2713 17.9962C45.4026 18.0488 45.5142 18.1275 45.6062 18.2326C45.7047 18.3311 45.7802 18.4493 45.8327 18.5872C45.8852 18.7185 45.9115 18.8629 45.9115 19.0205V22.0933C46.2857 21.8504 46.6863 21.6633 47.113 21.532C47.5464 21.3941 47.9994 21.3251 48.4722 21.3251C49.1222 21.3251 49.7295 21.4499 50.2942 21.6994C50.8654 21.9423 51.3612 22.2772 51.7814 22.704C52.2082 23.1242 52.543 23.6199 52.7859 24.1911C53.0355 24.7624 53.1602 25.373 53.1602 26.023C53.1602 26.6665 53.0355 27.2738 52.7859 27.845C52.543 28.4163 52.2082 28.9153 51.7814 29.3421C51.3612 29.7688 50.8654 30.107 50.2942 30.3565C49.7295 30.5994 49.1222 30.7209 48.4722 30.7209C47.8287 30.7209 47.2214 30.5994 46.6501 30.3565C46.0789 30.107 45.5799 29.7688 45.1531 29.3421C44.7263 28.9153 44.3882 28.4163 44.1387 27.845C43.8958 27.2738 43.7743 26.6665 43.7743 26.023V19.0205ZM45.9115 26.023C45.9115 26.371 45.9771 26.7026 46.1085 27.0177C46.2463 27.3263 46.4302 27.5988 46.66 27.8352C46.8964 28.065 47.1688 28.2488 47.4774 28.3867C47.786 28.518 48.1176 28.5837 48.4722 28.5837C48.8267 28.5837 49.1583 28.518 49.4669 28.3867C49.7755 28.2488 50.0447 28.065 50.2745 27.8352C50.5109 27.5988 50.6947 27.3263 50.826 27.0177C50.9574 26.7026 51.023 26.371 51.023 26.023C51.023 25.6684 50.9574 25.3369 50.826 25.0283C50.6947 24.7131 50.5109 24.4406 50.2745 24.2108C50.0447 23.981 49.7755 23.8005 49.4669 23.6691C49.1583 23.5313 48.8267 23.4623 48.4722 23.4623C48.1176 23.4623 47.786 23.5313 47.4774 23.6691C47.1688 23.8005 46.8964 23.981 46.66 24.2108C46.4302 24.4406 46.2463 24.7131 46.1085 25.0283C45.9771 25.3369 45.9115 25.6684 45.9115 26.023Z"
                fill="black"
            />
        </mask>
        <g mask="url(#mask0_9440_81122)">
            <rect
                x="43.2521"
                y="20.7802"
                width="10.3587"
                height="10.4457"
                fill="white"
            />
            <path
                d="M44.5536 25.8519C44.5536 23.6164 46.3658 21.8042 48.6013 21.8042H53.7806V29.8996H48.6013C46.3658 29.8996 44.5536 28.0874 44.5536 25.8519Z"
                fill="white"
            />
            <ellipse
                cx="48.4313"
                cy="25.9595"
                rx="2.48085"
                ry="2.48085"
                fill="white"
            />
            <path
                d="M43.2961 20.7802L53.5677 10.5085V20.7802H43.2961Z"
                fill="white"
            />
            <path
                d="M53.6106 10.5085L43.339 20.7802L43.339 10.5085L53.6106 10.5085Z"
                fill="white"
            />
            <path
                d="M49.7596 25.7008L39.488 35.9724L39.488 25.7008L49.7596 25.7008Z"
                fill="white"
            />
            <circle cx="48.4313" cy="25.9595" r="1.00105" fill="white" />
            <path
                d="M48.3878 23.4786C48.7136 23.4786 49.0362 23.5428 49.3372 23.6674C49.6382 23.7921 49.9117 23.9749 50.142 24.2052C50.3724 24.4356 50.5552 24.7091 50.6798 25.0101C50.8045 25.3111 50.8687 25.6337 50.8687 25.9595C50.8687 26.2852 50.8045 26.6078 50.6798 26.9088C50.5552 27.2098 50.3724 27.4833 50.142 27.7137C49.9117 27.9441 49.6382 28.1268 49.3372 28.2515C49.0362 28.3761 48.7136 28.4403 48.3878 28.4403L48.3878 25.9595L48.3878 23.4786Z"
                fill="white"
            />
        </g>
        <defs>
            <clipPath id="clip0_9440_81122">
                <rect
                    width="19.8974"
                    height="17.9077"
                    fill="white"
                    transform="translate(14.9231 15.9178)"
                />
            </clipPath>
        </defs>
    </svg>

